<svg width="16" height="11" viewBox="0 0 16 11" fill="none" xmlns="http://www.w3.org/2000/svg">
<path d="M5.75717 9.49752C5.16567 9.49742 4.60804 9.38984 4.08428 9.17478C3.56052 8.95971 3.10293 8.66763 2.71152 8.29852C2.31978 7.92911 2.00989 7.49744 1.78184 7.00354C1.55378 6.50963 1.43987 5.98393 1.4401 5.42644C1.44004 5.09478 1.47995 4.77248 1.55983 4.45952C1.63971 4.14657 1.75556 3.85262 1.90739 3.57767C2.05922 3.30272 2.24094 3.04662 2.45256 2.80937C2.66419 2.57211 2.90203 2.35914 3.1661 2.17044L6.42789 5.24636L5.75656 5.87942L3.16631 3.43677C2.92656 3.70809 2.73877 4.01153 2.60294 4.34708C2.46711 4.68264 2.39923 5.04248 2.39929 5.4266C2.39944 6.30097 2.72729 7.04726 3.38285 7.66546C4.0384 8.28366 4.82979 8.59284 5.75702 8.59299C6.68424 8.59314 7.47553 8.28423 8.13087 7.66624C8.78622 7.04826 9.11382 6.30208 9.11367 5.42771C9.11353 4.62117 8.83956 3.92585 8.29176 3.34174C7.74396 2.75763 7.05856 2.41259 6.23555 2.30662L6.2357 3.16592L5.2765 3.16576L5.27619 1.35671L5.75579 1.35679C6.3473 1.35689 6.90493 1.46447 7.42868 1.67953C7.95244 1.89459 8.41003 2.18668 8.80144 2.55579C9.19318 2.9252 9.50307 3.35686 9.73113 3.85077C9.95918 4.34468 10.0731 4.87038 10.0729 5.42787C10.073 5.98566 9.95907 6.51147 9.73118 7.0053C9.5033 7.49913 9.19371 7.93054 8.80242 8.29952C8.41081 8.66881 7.95316 8.96089 7.42948 9.17578C6.90579 9.39067 6.34836 9.49791 5.75717 9.49752ZM5.75694 8.14073C5.62105 8.14071 5.50706 8.09727 5.41496 8.01042C5.32287 7.92357 5.27697 7.81623 5.27727 7.68839C5.27724 7.56025 5.32327 7.45277 5.41534 7.36595C5.5074 7.27913 5.62122 7.23588 5.75679 7.2362C5.89267 7.23623 6.00667 7.27966 6.09876 7.36651C6.19086 7.45336 6.23676 7.56071 6.23646 7.68854C6.23648 7.81669 6.19046 7.92417 6.09839 8.01098C6.00632 8.0978 5.89251 8.14105 5.75694 8.14073ZM8.15455 5.87981C8.01866 5.87979 7.90467 5.83635 7.81257 5.7495C7.72048 5.66265 7.67458 5.55531 7.67487 5.42747C7.67485 5.29933 7.72088 5.19185 7.81294 5.10503C7.90501 5.01821 8.01883 4.97496 8.1544 4.97529C8.29028 4.97531 8.40427 5.01875 8.49637 5.10559C8.58847 5.19244 8.63437 5.29979 8.63407 5.42763C8.63409 5.55577 8.58807 5.66325 8.496 5.75007C8.40393 5.83689 8.29012 5.88014 8.15455 5.87981ZM3.35857 5.87902C3.22268 5.879 3.10869 5.83556 3.01659 5.74871C2.92449 5.66186 2.87859 5.55452 2.87889 5.42668C2.87887 5.29854 2.92489 5.19106 3.01696 5.10424C3.10903 5.01742 3.22285 4.97417 3.35841 4.9745C3.4943 4.97452 3.60829 5.01795 3.70039 5.1048C3.79249 5.19165 3.83839 5.299 3.83809 5.42684C3.83811 5.55498 3.79209 5.66246 3.70002 5.74928C3.60795 5.8361 3.49413 5.87934 3.35857 5.87902Z" fill="#223484"/>
</svg>
