<svg width="10" height="10" viewBox="0 0 10 10" fill="none" xmlns="http://www.w3.org/2000/svg">
<path d="M3.33337 5.83416C3.21531 5.83416 3.11628 5.79416 3.03628 5.71416C2.95628 5.63416 2.91642 5.53527 2.9167 5.4175C2.9167 5.29944 2.9567 5.20041 3.0367 5.12041C3.1167 5.04041 3.21559 5.00055 3.33337 5.00083C3.45142 5.00083 3.55045 5.04083 3.63045 5.12083C3.71045 5.20083 3.75031 5.29972 3.75004 5.4175C3.75004 5.53555 3.71003 5.63458 3.63003 5.71458C3.55003 5.79458 3.45115 5.83444 3.33337 5.83416ZM5.00004 5.83416C4.88198 5.83416 4.78295 5.79416 4.70295 5.71416C4.62295 5.63416 4.58309 5.53527 4.58337 5.4175C4.58337 5.29944 4.62337 5.20041 4.70337 5.12041C4.78337 5.04041 4.88226 5.00055 5.00004 5.00083C5.11809 5.00083 5.21712 5.04083 5.29712 5.12083C5.37712 5.20083 5.41698 5.29972 5.4167 5.4175C5.4167 5.53555 5.3767 5.63458 5.2967 5.71458C5.2167 5.79458 5.11781 5.83444 5.00004 5.83416ZM6.6667 5.83416C6.54865 5.83416 6.44962 5.79416 6.36962 5.71416C6.28962 5.63416 6.24976 5.53527 6.25004 5.4175C6.25004 5.29944 6.29004 5.20041 6.37004 5.12041C6.45004 5.04041 6.54893 5.00055 6.6667 5.00083C6.78476 5.00083 6.88379 5.04083 6.96379 5.12083C7.04379 5.20083 7.08365 5.29972 7.08337 5.4175C7.08337 5.53555 7.04337 5.63458 6.96337 5.71458C6.88337 5.79458 6.78448 5.83444 6.6667 5.83416ZM2.08337 9.1675C1.8542 9.1675 1.65795 9.08583 1.49462 8.9225C1.33128 8.75917 1.24975 8.56306 1.25003 8.33417V2.50083C1.25003 2.27166 1.3317 2.07541 1.49503 1.91208C1.65837 1.74874 1.85448 1.66721 2.08337 1.66749H2.50003V1.24041C2.50003 1.12235 2.54003 1.02513 2.62003 0.948741C2.70003 0.872352 2.79892 0.834158 2.9167 0.834158C3.03476 0.834158 3.13378 0.874158 3.21378 0.954158C3.29378 1.03416 3.33365 1.13305 3.33337 1.25082V1.66749H6.6667V1.24041C6.6667 1.12235 6.7067 1.02513 6.7867 0.948741C6.86671 0.872352 6.96559 0.834158 7.08337 0.834158C7.20143 0.834158 7.30046 0.874158 7.38046 0.954158C7.46046 1.03416 7.50032 1.13305 7.50004 1.25082V1.66749H7.91671C8.14587 1.66749 8.34212 1.74916 8.50546 1.91249C8.66879 2.07583 8.75032 2.27194 8.75004 2.50083V8.33417C8.75004 8.56333 8.66837 8.75958 8.50504 8.92292C8.34171 9.08625 8.1456 9.16778 7.91671 9.1675H2.08337ZM2.08337 8.33417H7.91671V4.16749H2.08337V8.33417ZM2.08337 3.33416H7.91671V2.50083H2.08337V3.33416Z" fill="#223484"/>
</svg>
