<svg width="18" height="18" viewBox="0 0 18 18" fill="none" xmlns="http://www.w3.org/2000/svg">
<path d="M12.3791 4.64307H6.1001C5.86026 4.64307 5.66577 4.83755 5.66577 5.0774C5.66577 5.31725 5.86026 5.51173 6.1001 5.51173H12.3796C12.6194 5.51173 12.8139 5.31725 12.8139 5.0774C12.8139 4.83755 12.6189 4.64307 12.3791 4.64307Z" fill="#2196F3"/>
<path d="M12.8134 7.52613C12.8134 7.28628 12.6189 7.0918 12.3791 7.0918H6.1001C5.86026 7.0918 5.66577 7.28628 5.66577 7.52613C5.66577 7.76598 5.86026 7.96046 6.1001 7.96046H12.3796C12.6189 7.96046 12.8134 7.76598 12.8134 7.52613Z" fill="#2196F3"/>
<path d="M6.1001 9.54102C5.86026 9.54102 5.66577 9.7355 5.66577 9.97535C5.66577 10.2152 5.86026 10.4097 6.1001 10.4097H9.26301C9.50286 10.4097 9.69734 10.2152 9.69734 9.97535C9.69734 9.7355 9.50286 9.54102 9.26301 9.54102H6.1001Z" fill="#2196F3"/>
<path d="M7.22798 15.5126H4.54043C4.1698 15.5126 3.86866 15.2109 3.86866 14.8408V3.54043C3.86866 3.1698 4.17028 2.86866 4.54043 2.86866H13.9394C14.3095 2.86866 14.6111 3.17028 14.6111 3.54043V7.66418C14.6111 7.90402 14.8056 8.09851 15.0455 8.09851C15.2853 8.09851 15.4798 7.90402 15.4798 7.66418V3.54043C15.4798 2.69107 14.7887 2 13.9399 2H4.54043C3.69107 2 3 2.69107 3 3.54043V14.8408C3 15.6902 3.69107 16.3812 4.54043 16.3812H7.22798C7.46783 16.3812 7.66232 16.1867 7.66232 15.9469C7.66232 15.707 7.46783 15.5126 7.22798 15.5126Z" fill="#2196F3"/>
<path d="M15.5064 9.63175C14.8762 9.001 13.8497 9.001 13.2199 9.63175L9.22648 13.6252C9.10004 13.7516 9.01703 13.9119 8.98711 14.088L8.76898 15.3828C8.72265 15.6555 8.81193 15.9349 9.00738 16.1303C9.16857 16.292 9.38814 16.3813 9.61303 16.3813C9.66033 16.3813 9.70762 16.3774 9.75491 16.3692L11.0487 16.1506C11.2254 16.1212 11.3861 16.0386 11.5125 15.9117L15.506 11.9183C16.1367 11.288 16.1367 10.262 15.5064 9.63175ZM10.9054 15.294L9.62558 15.5271L9.84033 14.2391L12.7142 11.3652L13.773 12.424L10.9054 15.294ZM14.8921 11.3039L14.3868 11.8097L13.328 10.7509L13.8338 10.2451C13.9795 10.0994 14.1716 10.0265 14.3632 10.0265C14.5548 10.0265 14.7464 10.0994 14.8926 10.2451C15.1841 10.5376 15.1841 11.012 14.8921 11.3039Z" fill="#2196F3"/>
</svg>
