<svg width="20" height="20" viewBox="0 0 20 20" fill="none" xmlns="http://www.w3.org/2000/svg">
<path d="M0.0184638 2.09364C0.0196587 0.937354 0.957981 0.00183833 2.11426 0.00410603L17.8966 0.0350582C19.0529 0.0373259 19.9893 0.976519 19.9881 2.1328L19.9718 17.9063C19.9706 19.0626 19.0322 19.9981 17.876 19.9958L2.09364 19.9649C0.937351 19.9626 0.000968533 19.0234 0.00216345 17.8671L0.0184638 2.09364Z" fill="#2196F3"/>
<g clip-path="url(#clip0_34_2374)">
<path d="M10.4817 9.26729L9.57652 9.266L9.57523 10.1712L10.4804 10.1725L10.4817 9.26729Z" fill="white"/>
<path d="M14.4753 4.97415L13.9318 4.97338L13.9331 4.06817L13.0272 4.06689L13.026 4.97209L7.04726 4.96358L7.04855 4.05838L6.14269 4.05709L6.1414 4.9623L5.59788 4.96152C4.84864 4.96046 4.23822 5.5687 4.23715 6.3174L4.22581 14.2832C4.22474 15.0319 4.83343 15.6419 5.58266 15.6429L8.59466 15.6472L8.6626 15.6473L10.2425 15.6496C9.92968 15.3908 9.65736 15.085 9.43611 14.7432L8.66388 14.7421L8.59595 14.742L5.58395 14.7377C5.33421 14.7374 5.13131 14.534 5.13167 14.2845L5.14018 8.31014L14.9235 8.32405L14.9222 9.22926L14.9221 9.27452L14.9221 9.27676C15.2635 9.49882 15.5688 9.77183 15.8268 10.0851L15.828 9.27581L15.8281 9.23055L15.8322 6.33389C15.8333 5.5852 15.2246 4.97522 14.4753 4.97415ZM14.9248 7.41885L5.14147 7.40493L5.14302 6.31869C5.14337 6.06912 5.34685 5.86637 5.59659 5.86673L6.14011 5.8675L6.13882 6.77271L7.04468 6.77399L7.04597 5.86879L13.0247 5.87729L13.0234 6.7825L13.9292 6.78379L13.9305 5.87858L14.474 5.87936C14.7238 5.87971 14.9267 6.08304 14.9263 6.3326L14.9248 7.41885Z" fill="white"/>
<path d="M12.7689 9.54228C11.0831 9.53988 9.7097 10.9084 9.7073 12.593C9.7049 14.2776 11.0744 15.65 12.7602 15.6524C14.446 15.6548 15.8195 14.2863 15.8219 12.6017C15.8243 10.9171 14.4547 9.54467 12.7689 9.54228ZM12.7615 14.7472C11.5752 14.7455 10.6115 13.7797 10.6132 12.5943C10.6148 11.4088 11.5814 10.4458 12.7676 10.4475C13.9539 10.4492 14.9177 11.415 14.916 12.6004C14.9143 13.7858 13.9478 14.7489 12.7615 14.7472Z" fill="white"/>
<path d="M13.1978 11.0808L12.2919 11.0795L12.2891 13.0484L13.9649 13.0507L13.9662 12.1455L13.1962 12.1444L13.1978 11.0808Z" fill="white"/>
<path d="M8.67042 11.0747L7.76522 11.0734L7.76393 11.9786L8.66913 11.9799L8.67042 11.0747Z" fill="white"/>
<path d="M6.85484 11.0726L5.94964 11.0714L5.94835 11.9766L6.85355 11.9778L6.85484 11.0726Z" fill="white"/>
<path d="M6.85893 9.26115L5.95373 9.25987L5.95244 10.1651L6.85764 10.1664L6.85893 9.26115Z" fill="white"/>
<path d="M6.85484 12.8841L5.94964 12.8828L5.94835 13.7881L6.85355 13.7893L6.85484 12.8841Z" fill="white"/>
<path d="M8.67451 9.26524L7.76931 9.26395L7.76802 10.1692L8.67322 10.1704L8.67451 9.26524Z" fill="white"/>
<path d="M8.66633 12.8862L7.76113 12.8849L7.75984 13.7901L8.66504 13.7914L8.66633 12.8862Z" fill="white"/>
</g>
<defs>
<clipPath id="clip0_34_2374">
<path d="M4.20141 6.2891C4.20261 5.13282 5.14093 4.1973 6.29721 4.19957L13.705 4.2141C14.8613 4.21636 15.7976 5.15556 15.7965 6.31184L15.7866 15.8044L4.1916 15.7817L4.20141 6.2891Z" fill="white"/>
</clipPath>
</defs>
</svg>
