<svg width="19" height="18" viewBox="0 0 19 18" fill="none" xmlns="http://www.w3.org/2000/svg">
<path d="M8.43965 10.6036L10.0855 9.37478L8.43965 8.14597C8.37387 8.10036 8.32578 8.04236 8.30045 7.97806C8.27511 7.91376 8.27348 7.84554 8.29572 7.78061C8.31796 7.71568 8.36324 7.65642 8.4268 7.60909C8.49036 7.56176 8.56984 7.5281 8.65688 7.51167C8.74375 7.49504 8.83502 7.4962 8.92109 7.51503C9.00715 7.53385 9.08484 7.56964 9.14597 7.61863L11.145 9.11111C11.2386 9.18107 11.2911 9.2759 11.2911 9.37478C11.2911 9.47366 11.2386 9.56849 11.145 9.63845L9.14597 11.1309C9.08488 11.18 9.00719 11.2159 8.92106 11.2349C8.83494 11.2538 8.74358 11.255 8.65661 11.2384C8.56963 11.2218 8.49027 11.188 8.42687 11.1405C8.36348 11.0931 8.3184 11.0337 8.29639 10.9687C8.27412 10.9039 8.27567 10.8357 8.30088 10.7715C8.32609 10.7072 8.37403 10.6492 8.43965 10.6036Z" fill="white"/>
<path d="M13.9351 15.75L3.37788 15.75C2.7598 15.75 2.25817 15.2502 2.25817 14.6344L2.25817 4.11562C2.25817 3.81974 2.37614 3.53598 2.58613 3.32676C2.79611 3.11754 3.08092 3 3.37788 3L13.9351 3C14.2321 3 14.5169 3.11754 14.7269 3.32676C14.9368 3.53598 15.0548 3.81974 15.0548 4.11562L15.0548 14.6344C15.0548 15.2502 14.5532 15.75 13.9351 15.75ZM14.0951 14.6344L14.0951 4.11562C14.0951 4.02765 14.0234 3.95625 13.9351 3.95625L6.737 3.95625L6.737 14.7937L13.9351 14.7937C13.9775 14.7937 14.0182 14.777 14.0482 14.7471C14.0782 14.7172 14.0951 14.6766 14.0951 14.6344ZM5.77725 3.95625H3.37788C3.33546 3.95625 3.29477 3.97304 3.26477 4.00293C3.23477 4.03282 3.21792 4.07336 3.21792 4.11562L3.21792 14.6344C3.21792 14.6766 3.23477 14.7172 3.26477 14.7471C3.29477 14.777 3.33546 14.7937 3.37788 14.7937H5.77725L5.77725 3.95625Z" fill="white"/>
</svg>
