<svg width="12" height="11" viewBox="0 0 12 11" fill="none" xmlns="http://www.w3.org/2000/svg">
<g clip-path="url(#clip0_34_2481)">
<path d="M9.65143 4.1215C10.0597 4.12148 10.3907 3.81389 10.3907 3.43446C10.3907 3.05503 10.0597 2.74745 9.65142 2.74746C9.24313 2.74747 8.91214 3.05507 8.91214 3.4345C8.91215 3.81393 9.24314 4.12151 9.65143 4.1215Z" fill="#223484"/>
<path d="M5.9558 9.95992L3.36831 9.96L3.3683 9.27298L5.95579 9.2729C7.79032 9.27284 9.28255 7.88605 9.28253 6.18121L9.28252 4.80718L10.0218 4.80716L10.0218 6.18119C10.0218 8.26457 8.19767 9.95985 5.9558 9.95992Z" fill="#223484"/>
<path d="M5.2165 7.2116C4.1974 7.21163 3.36828 6.44116 3.36827 5.49411C3.36826 4.54705 4.19736 3.77654 5.21646 3.77651C6.23556 3.77647 7.06468 4.54694 7.06468 5.49399C7.06469 6.44105 6.2356 7.21156 5.2165 7.2116ZM5.21647 4.46352C4.60508 4.46354 4.10755 4.92592 4.10756 5.49409C4.10756 6.06225 4.6051 6.5246 5.21649 6.52458C5.82788 6.52456 6.32541 6.06218 6.3254 5.49402C6.3254 4.92585 5.82786 4.46351 5.21647 4.46352Z" fill="#223484"/>
<path d="M0.780432 8.24172C1.18873 8.2417 1.51972 7.93409 1.51973 7.55466C1.51974 7.17523 1.18876 6.86766 0.780462 6.86769C0.372168 6.86771 0.0411736 7.17532 0.0411652 7.55475C0.0411569 7.93418 0.372138 8.24175 0.780432 8.24172Z" fill="#223484"/>
<path d="M1.15237 6.18173L0.413084 6.18172L0.412906 4.80768C0.412637 2.7243 2.2366 1.02912 4.47847 1.02917L7.06596 1.02922L7.06604 1.71624L4.47856 1.71618C2.64403 1.71614 1.15197 3.10286 1.15219 4.80769L1.15237 6.18173Z" fill="#223484"/>
</g>
<defs>
<clipPath id="clip0_34_2481">
<rect width="11.485" height="10.9321" rx="2" transform="matrix(1.00551 0.000664634 0.00100136 1.00551 0 0)" fill="white"/>
</clipPath>
</defs>
</svg>
