<svg width="13" height="9" viewBox="0 0 13 9" fill="none" xmlns="http://www.w3.org/2000/svg">
<g clip-path="url(#clip0_34_2455)">
<path d="M8.68378 8.67294L8.68313 7.56058L7.31844 7.55984L7.318 6.81827L8.68269 6.81901L8.68204 5.70665L9.59183 5.70714L9.59249 6.8195L10.9572 6.82024L10.9576 7.56181L9.59292 7.56107L9.59357 8.67343L8.68378 8.67294ZM3.22458 7.92841C2.97439 7.92828 2.76009 7.85549 2.58169 7.71004C2.40328 7.5646 2.31417 7.39003 2.31436 7.18635L2.31174 2.73692C2.31162 2.53298 2.40068 2.35839 2.57892 2.21314C2.75715 2.06789 2.97121 1.99545 3.2211 1.99584L3.676 1.99608L3.67556 1.25451L4.58536 1.255L4.58579 1.99657L7.31517 1.99805L7.31474 1.25648L8.22453 1.25697L8.22497 1.99854L8.67986 1.99879C8.93006 1.99893 9.14436 2.07172 9.32276 2.21716C9.50116 2.36261 9.59028 2.53717 9.59009 2.74086L9.59142 5.00265C9.43978 4.98403 9.28814 4.97468 9.13651 4.9746C8.98487 4.97451 8.83325 4.9837 8.68163 5.00216L8.68117 4.22351L3.22241 4.22055L3.22415 7.18684L6.40843 7.18856C6.4085 7.31216 6.41994 7.43576 6.44276 7.55937C6.46558 7.68298 6.50735 7.80659 6.56808 7.93022L3.22458 7.92841ZM3.22197 3.47898L8.68073 3.48194L8.6803 2.74036L3.22154 2.73741L3.22197 3.47898Z" fill="#223484"/>
</g>
<defs>
<clipPath id="clip0_34_2455">
<rect width="12.3889" height="8.48394" rx="2" transform="matrix(1.04891 0.000567872 0.000615696 1.04891 0 0)" fill="white"/>
</clipPath>
</defs>
</svg>
