<svg width="8" height="11" viewBox="0 0 8 11" fill="none" xmlns="http://www.w3.org/2000/svg">
<path d="M6.75188 4.22101L3.94459 4.21701L3.94999 0.423772C3.9501 0.350741 3.9238 0.279826 3.8754 0.222589C3.82699 0.165352 3.75932 0.125169 3.68344 0.108591C3.60755 0.0920125 3.52791 0.100017 3.4575 0.1313C3.3871 0.162583 3.33008 0.215298 3.29575 0.280852L0.135109 6.31409C0.109508 6.36329 0.0976618 6.41778 0.100684 6.47244C0.103707 6.52711 0.121498 6.58017 0.152389 6.62663C0.183279 6.67309 0.226257 6.71144 0.277288 6.73807C0.328319 6.76471 0.385731 6.77876 0.444136 6.7789L3.25143 6.7829L3.24603 10.5771C3.24608 10.6498 3.27233 10.7204 3.32051 10.7774C3.3687 10.8345 3.436 10.8746 3.51153 10.8913C3.53738 10.8969 3.56381 10.8997 3.59032 10.8998C3.65482 10.8998 3.71804 10.8829 3.7728 10.851C3.82756 10.819 3.87165 10.7733 3.90007 10.7191L7.06071 4.68582C7.08625 4.63663 7.09805 4.58217 7.09501 4.52754C7.09197 4.47291 7.07419 4.41989 7.04334 4.37345C7.01248 4.32701 6.96956 4.28866 6.91858 4.262C6.86761 4.23534 6.81025 4.22124 6.75188 4.22101ZM3.93752 9.1818L3.9414 6.46057C3.94147 6.37491 3.90524 6.29272 3.84068 6.23207C3.77611 6.17142 3.6885 6.13728 3.5971 6.13715L0.996664 6.13345L3.2583 1.8183L3.25442 4.53934C3.25439 4.58177 3.26327 4.62379 3.28057 4.66301C3.29786 4.70223 3.32323 4.73787 3.35521 4.76791C3.3872 4.79794 3.42519 4.82177 3.467 4.83805C3.50882 4.85433 3.55364 4.86272 3.59892 4.86276L6.19935 4.86647L3.93752 9.1818Z" fill="#2196F3" stroke="#2196F3" stroke-width="0.2"/>
</svg>
